<svg width="34" height="34" viewBox="0 0 34 34" fill="none" xmlns="http://www.w3.org/2000/svg">
<path d="M28.2101 9.88062C28.1815 10.0639 28.1483 10.2512 28.1111 10.4437C26.8381 16.9489 22.4825 19.1961 16.919 19.1961H14.0868C13.4068 19.1961 12.8331 19.6875 12.7275 20.3555L11.2772 29.509L10.8668 32.1035C10.8043 32.4966 11.074 32.8665 11.4691 32.9282C11.5063 32.9342 11.5441 32.9369 11.582 32.9369H16.6056C17.2006 32.9369 17.7059 32.5066 17.7996 31.9228L17.8487 31.6685L18.7943 25.6946L18.8548 25.3666C18.9471 24.7808 19.4538 24.3505 20.0488 24.3505H20.7998C25.6674 24.3505 29.4771 22.3836 30.5908 16.6926C31.0563 14.3152 30.8152 12.3303 29.584 10.9338C29.1937 10.5024 28.7281 10.1455 28.2101 9.88062Z" fill="#888888"/>
<path d="M25.6009 3.3927C24.1612 1.76109 21.5627 1.0625 18.2371 1.0625H8.58297C7.90364 1.0625 7.32391 1.55391 7.21899 2.22328L3.19809 27.5898C3.12637 28.04 3.43516 28.463 3.88805 28.5341C3.93055 28.5407 3.97371 28.5441 4.01688 28.5441H9.9775L11.4743 19.0951L11.4278 19.3913C11.5314 18.7239 12.1091 18.2312 12.7872 18.2318H15.6194C21.1822 18.2318 25.5378 15.9833 26.8115 9.47949C26.8493 9.28691 26.8812 9.09965 26.9104 8.91637H26.9118C27.2889 6.5118 26.9071 4.87488 25.6009 3.3927Z" fill="#888888"/>
</svg>
